<?xml version="1.0" standalone="no"?>
<!DOCTYPE svg PUBLIC "-//W3C//DTD SVG 20010904//EN"
 "http://www.w3.org/TR/2001/REC-SVG-20010904/DTD/svg10.dtd">
<svg version="1.0" xmlns="http://www.w3.org/2000/svg"
 width="700.000000pt" height="700.000000pt" viewBox="0 0 700.000000 700.000000"
 preserveAspectRatio="xMidYMid meet">
<metadata>
Created by potrace 1.11, written by Peter Selinger 2001-2013
</metadata>
<g transform="translate(0.000000,700.000000) scale(0.100000,-0.100000)"
fill="#000000" stroke="none">
<path d="M3348 6416 c-1 -2 -43 -6 -93 -10 -49 -3 -101 -8 -115 -10 -14 -3
-43 -7 -65 -10 -22 -3 -49 -7 -60 -9 -24 -5 -90 -17 -125 -23 -57 -10 -259
-67 -348 -99 -292 -101 -582 -258 -827 -447 -107 -82 -336 -299 -436 -413 -56
-64 -180 -235 -244 -335 -83 -130 -220 -408 -274 -558 -38 -103 -96 -301 -107
-362 -3 -14 -7 -32 -9 -40 -5 -17 -7 -32 -29 -170 -50 -309 -37 -741 31 -1030
8 -36 16 -72 18 -80 32 -154 125 -415 213 -595 72 -147 224 -396 294 -480 9
-11 45 -56 80 -100 69 -87 261 -284 347 -355 29 -25 61 -52 71 -60 190 -163
554 -367 825 -465 220 -79 370 -117 445 -112 236 15 358 285 215 473 -43 57
-96 84 -252 129 -82 24 -173 52 -203 63 -733 266 -1289 892 -1471 1657 -11 50
-23 105 -25 124 -3 19 -6 37 -9 40 -2 4 -7 43 -10 86 -4 43 -9 88 -11 99 -7
33 -6 315 1 381 6 58 29 214 41 285 11 67 74 272 115 375 156 399 437 765 786
1023 192 141 439 269 651 336 98 31 262 73 317 81 204 31 243 33 455 30 124
-1 234 -5 245 -8 11 -2 40 -8 65 -12 235 -35 473 -111 684 -216 106 -53 131
-67 241 -138 385 -246 705 -633 882 -1066 42 -101 108 -308 118 -368 3 -17 8
-39 10 -47 8 -30 16 -84 40 -275 8 -62 8 -313 0 -397 -67 -715 -447 -1351
-1043 -1748 -206 -136 -497 -263 -722 -315 -119 -27 -161 -46 -210 -95 -68
-66 -85 -108 -85 -210 0 -98 19 -143 85 -209 92 -91 206 -101 435 -37 189 53
328 107 521 201 574 282 1033 744 1317 1325 70 144 168 397 183 474 2 10 10
42 18 70 20 72 53 230 61 301 4 33 9 71 11 85 24 163 23 544 -2 710 -86 583
-277 1034 -622 1470 -105 131 -328 354 -452 450 -25 19 -51 40 -58 48 -18 17
-257 174 -307 203 -304 169 -644 292 -935 339 -41 7 -82 14 -90 15 -8 1 -37 6
-65 9 -27 4 -66 9 -85 12 -39 5 -426 14 -432 10z"/>
<path d="M3220 5230 c-563 -92 -1049 -455 -1297 -970 -77 -158 -134 -352 -160
-540 -10 -74 -10 -360 0 -435 67 -482 313 -903 697 -1188 94 -70 220 -144 319
-188 78 -35 92 -38 161 -36 118 5 197 55 249 158 27 54 30 69 28 137 -5 135
-57 201 -221 283 -134 68 -213 124 -322 233 -225 225 -337 496 -338 816 0 241
58 438 189 641 124 192 324 357 535 441 144 57 251 79 415 83 361 9 683 -139
930 -425 102 -119 217 -366 240 -515 3 -16 9 -56 13 -88 11 -70 7 -241 -7
-322 -41 -238 -141 -438 -305 -612 -108 -114 -205 -185 -352 -256 -39 -19 -87
-49 -107 -66 -91 -81 -121 -240 -65 -347 61 -117 193 -181 317 -153 88 20 282
125 411 222 256 194 455 454 575 752 36 89 88 271 100 353 4 23 9 54 11 70 3
15 7 101 9 192 3 160 -7 284 -35 405 -7 28 -13 57 -15 66 -2 9 -20 66 -40 125
-60 181 -173 387 -289 529 -75 92 -181 201 -236 244 -12 9 -33 26 -48 39 -80
69 -313 206 -407 240 -16 6 -61 22 -100 37 -89 33 -215 64 -330 80 -125 19
-395 16 -525 -5z"/>
<path d="M3429 4079 c-395 -54 -624 -469 -455 -824 145 -305 501 -424 799
-268 63 33 153 110 199 170 88 114 129 306 99 463 -15 75 -80 204 -136 267
-92 104 -257 187 -384 192 -30 1 -57 3 -60 5 -3 1 -31 -1 -62 -5z"/>
</g>
</svg>
